<svg width="331" height="214" viewBox="0 0 331 214" fill="none" xmlns="http://www.w3.org/2000/svg">
<circle cx="100" cy="114" r="100" fill="#EFECEC"/>
<circle cx="269" cy="93" r="62" fill="#EFECEC"/>
<circle cx="204" cy="33" r="12" fill="#C8D300"/>
<circle cx="214" cy="167" r="4" fill="#C8D300"/>
<path d="M189.996 13H191.268V10.372H192.528C194.256 10.372 195.312 9.364 195.312 7.744C195.312 6.208 194.544 5.2 192.516 5.2H189.996V13ZM192.468 9.316H191.268V6.268H192.42C193.584 6.268 193.968 6.832 193.968 7.804C193.968 8.908 193.368 9.316 192.468 9.316ZM203.469 13H204.657V5.188H203.217L201.693 9.016L200.709 11.8L199.701 9.004L198.129 5.2H196.629V13H197.805V9.472L197.793 7.384L198.609 9.604L199.989 13H201.357L202.737 9.448L203.469 7.3V13ZM208.528 6.304L210.196 6.22V13H211.432V5.092L208.528 5.236V6.304ZM216.122 5.092C213.782 5.092 213.062 6.916 213.062 9.256C213.062 11.836 214.034 13.12 216.026 13.12C218.546 13.12 219.086 10.96 219.086 8.908C219.086 6.544 218.246 5.092 216.122 5.092ZM216.098 12.088C214.526 12.088 214.334 10.672 214.334 9.004C214.334 7.492 214.67 6.124 216.038 6.124C217.634 6.124 217.814 7.564 217.814 9.04C217.814 10.648 217.538 12.088 216.098 12.088Z" fill="#373737"/>
<path d="M198.996 191H200.268V188.372H201.528C203.256 188.372 204.312 187.364 204.312 185.744C204.312 184.208 203.544 183.2 201.516 183.2H198.996V191ZM201.468 187.316H200.268V184.268H201.42C202.584 184.268 202.968 184.832 202.968 185.804C202.968 186.908 202.368 187.316 201.468 187.316ZM212.469 191H213.657V183.188H212.217L210.693 187.016L209.709 189.8L208.701 187.004L207.129 183.2H205.629V191H206.805V187.472L206.793 185.384L207.609 187.604L208.989 191H210.357L211.737 187.448L212.469 185.3V191ZM217.744 190.172V191H223.096V189.932H219.316C220.84 188.828 222.748 186.8 222.748 185.216C222.748 183.86 221.788 183.092 220.48 183.092C219.172 183.092 218.272 183.836 218.02 184.124L218.632 184.952C219.04 184.484 219.64 184.124 220.228 184.124C220.948 184.124 221.452 184.58 221.452 185.36C221.452 186.872 219.148 189.212 217.744 190.172ZM224.134 190.388C224.134 190.868 224.398 191.132 224.902 191.132C225.394 191.132 225.694 190.868 225.694 190.388C225.694 189.896 225.346 189.668 224.902 189.668C224.434 189.668 224.134 189.932 224.134 190.388ZM228.414 184.268H231.582V183.2H227.238V187.076C229.458 187.076 230.514 187.532 230.514 188.756C230.514 189.632 229.758 190.088 229.002 190.088C228.39 190.088 227.754 189.824 227.262 189.332L226.662 190.328C227.25 190.808 228.066 191.12 228.906 191.12C230.91 191.12 231.786 189.908 231.786 188.684C231.786 187.16 230.742 186.14 228.414 186.116V184.268Z" fill="#373737"/>
<path d="M75.368 111.2H74.048L76.76 119H78.224L80.804 111.2H79.508L78.104 115.676L77.528 117.872L76.916 115.676L75.368 111.2ZM81.8983 111.2V119H86.4583V117.908H83.1703V111.2H81.8983ZM88.1414 119L88.7774 117.08H91.7654L92.4254 119H93.7814L90.9974 111.2H89.6054L86.8454 119H88.1414ZM91.4174 116.06H89.1254L89.6414 114.5L90.2534 112.448L90.8774 114.464L91.4174 116.06ZM96.7078 118.064C96.0478 118.064 95.2198 117.668 94.7278 117.224L94.2958 118.424C94.9438 118.832 95.8198 119.12 96.6958 119.12C98.2558 119.12 99.4918 118.268 99.4918 116.924C99.4918 114.2 95.7958 114.716 95.7958 113.108C95.7958 112.496 96.2758 112.16 97.0678 112.16C97.7158 112.16 98.4478 112.496 98.8078 112.856L99.1798 111.644C98.5558 111.296 97.8478 111.092 96.9718 111.092C95.5198 111.092 94.4518 111.956 94.4518 113.204C94.4518 115.736 98.1478 115.244 98.1478 117.02C98.1478 117.74 97.4158 118.064 96.7078 118.064ZM103.637 111.2V119H104.909V115.688L105.413 115.568L108.029 119H109.601L106.493 114.956L109.313 111.2H107.873L105.497 114.488L104.909 114.656V111.2H103.637ZM113.603 111.092C111.323 111.092 109.931 112.796 109.931 115.148C109.931 117.644 111.287 119.12 113.567 119.12C115.859 119.12 117.263 117.404 117.263 115.112C117.263 112.424 115.859 111.092 113.603 111.092ZM113.567 118.052C111.935 118.052 111.287 116.972 111.287 115.148C111.287 113.144 112.007 112.16 113.603 112.16C115.211 112.16 115.919 113.108 115.919 115.112C115.919 116.984 115.151 118.052 113.567 118.052ZM120.673 118.064C120.013 118.064 119.185 117.668 118.693 117.224L118.261 118.424C118.909 118.832 119.785 119.12 120.661 119.12C122.221 119.12 123.457 118.268 123.457 116.924C123.457 114.2 119.761 114.716 119.761 113.108C119.761 112.496 120.241 112.16 121.033 112.16C121.681 112.16 122.413 112.496 122.773 112.856L123.145 111.644C122.521 111.296 121.813 111.092 120.937 111.092C119.485 111.092 118.417 111.956 118.417 113.204C118.417 115.736 122.113 115.244 122.113 117.02C122.113 117.74 121.381 118.064 120.673 118.064ZM124.906 111.2V119H129.742V117.908H126.178V115.532H129.358V114.476H126.178V112.268H129.742V111.2H124.906Z" fill="#373737"/>
<path d="M235.624 92.268H239.428L238.084 94.164L235.384 98.136V99H240.988V97.92H236.884L238.3 95.94L240.892 92.136V91.2H235.624V92.268ZM242.441 99H243.713V96.144H245.069L246.677 99H248.189L246.317 95.88C247.193 95.496 247.697 94.716 247.697 93.648C247.697 92.112 246.929 91.2 244.889 91.2H242.441V99ZM244.853 95.088H243.713V92.268H244.805C245.921 92.268 246.353 92.676 246.353 93.684C246.353 94.752 245.705 95.088 244.853 95.088ZM250.72 95.052L250.708 93.012L252.076 95.088L254.788 99H256.06V91.2H254.86V95.232L254.884 97.068L253.552 95.064L250.864 91.2H249.508V99H250.72V95.052ZM261.267 91.092C258.987 91.092 257.595 92.796 257.595 95.148C257.595 97.644 258.951 99.12 261.231 99.12C263.523 99.12 264.927 97.404 264.927 95.112C264.927 92.424 263.523 91.092 261.267 91.092ZM261.231 98.052C259.599 98.052 258.951 96.972 258.951 95.148C258.951 93.144 259.671 92.16 261.267 92.16C262.875 92.16 263.583 93.108 263.583 95.112C263.583 96.984 262.815 98.052 261.231 98.052ZM269.16 99H270.432V96.372H271.692C273.42 96.372 274.476 95.364 274.476 93.744C274.476 92.208 273.708 91.2 271.68 91.2H269.16V99ZM271.632 95.316H270.432V92.268H271.584C272.748 92.268 273.132 92.832 273.132 93.804C273.132 94.908 272.532 95.316 271.632 95.316ZM275.793 91.2V99H277.065V91.2H275.793ZM280.346 91.2H279.074V98.172C279.074 99.312 278.462 99.66 277.622 99.876L277.994 100.956C279.458 100.644 280.346 99.732 280.346 98.316V91.2ZM282.344 91.2V99H287.18V97.908H283.616V95.532H286.796V94.476H283.616V92.268H287.18V91.2H282.344ZM290.684 98.064C290.024 98.064 289.196 97.668 288.704 97.224L288.272 98.424C288.92 98.832 289.796 99.12 290.672 99.12C292.232 99.12 293.468 98.268 293.468 96.924C293.468 94.2 289.772 94.716 289.772 93.108C289.772 92.496 290.252 92.16 291.044 92.16C291.692 92.16 292.424 92.496 292.784 92.856L293.156 91.644C292.532 91.296 291.824 91.092 290.948 91.092C289.496 91.092 288.428 91.956 288.428 93.204C288.428 95.736 292.124 95.244 292.124 97.02C292.124 97.74 291.392 98.064 290.684 98.064ZM294.918 91.2V99H296.19V95.688L296.694 95.568L299.31 99H300.882L297.774 94.956L300.594 91.2H299.154L296.778 94.488L296.19 94.656V91.2H294.918ZM302.251 99L302.887 97.08H305.875L306.535 99H307.891L305.107 91.2H303.715L300.955 99H302.251ZM305.527 96.06H303.235L303.751 94.5L304.363 92.448L304.987 94.464L305.527 96.06Z" fill="#373737"/>
</svg>
